<?xml version="1.0" encoding="UTF-8" standalone="no"?>
<!-- Created with Inkscape (http://www.inkscape.org/) -->

<svg
   xmlns:dc="http://purl.org/dc/elements/1.1/"
   xmlns:cc="http://creativecommons.org/ns#"
   xmlns:rdf="http://www.w3.org/1999/02/22-rdf-syntax-ns#"
   xmlns:svg="http://www.w3.org/2000/svg"
   xmlns="http://www.w3.org/2000/svg"
   xmlns:sodipodi="http://sodipodi.sourceforge.net/DTD/sodipodi-0.dtd"
   xmlns:inkscape="http://www.inkscape.org/namespaces/inkscape"
   width="210mm"
   height="297mm"
   viewBox="0 0 744.09448819 1052.3622047"
   id="svg2"
   version="1.1"
   inkscape:version="0.91 r13725"
   sodipodi:docname="Newest Logo.svg">
  <defs
     id="defs4">
    <clipPath
       id="clipPath3350"
       clipPathUnits="userSpaceOnUse">
      <path
         inkscape:connector-curvature="0"
         id="path3352"
         d="m 0,2000 2000,0 L 2000,0 0,0 0,2000 Z" />
    </clipPath>
  </defs>
  <sodipodi:namedview
     id="base"
     pagecolor="#ffffff"
     bordercolor="#666666"
     borderopacity="1.0"
     inkscape:pageopacity="0.0"
     inkscape:pageshadow="2"
     inkscape:zoom="0.35"
     inkscape:cx="-52.142857"
     inkscape:cy="520"
     inkscape:document-units="px"
     inkscape:current-layer="layer1"
     showgrid="false"
     inkscape:window-width="1680"
     inkscape:window-height="987"
     inkscape:window-x="-8"
     inkscape:window-y="-8"
     inkscape:window-maximized="1" />
  <metadata
     id="metadata7">
    <rdf:RDF>
      <cc:Work
         rdf:about="">
        <dc:format>image/svg+xml</dc:format>
        <dc:type
           rdf:resource="http://purl.org/dc/dcmitype/StillImage" />
        <dc:title></dc:title>
      </cc:Work>
    </rdf:RDF>
  </metadata>
  <g
     inkscape:label="Layer 1"
     inkscape:groupmode="layer"
     id="layer1">
    <g
       transform="matrix(0.68446165,0,0,-0.78141064,-309.93069,1305.5202)"
       inkscape:label="c_13256_Handyman_logo_01"
       id="g3344">
      <g
         id="g3346">
        <g
           clip-path="url(#clipPath3350)"
           id="g3348">
          <g
             transform="translate(999.6417,672.8636)"
             id="g3354">
            <path
               inkscape:connector-curvature="0"
               id="path3356"
               style="fill:#001f75;fill-opacity:1;fill-rule:nonzero;stroke:none"
               d="m 0,0 c -180.898,0 -327.544,146.647 -327.544,327.544 0,180.898 146.646,327.545 327.544,327.545 180.898,0 327.544,-146.647 327.544,-327.545 C 327.544,146.647 180.898,0 0,0 m 0,858.012 c -292.969,0 -530.468,-237.498 -530.468,-530.468 0,-292.969 237.499,-530.467 530.468,-530.467 292.969,0 530.468,237.498 530.468,530.467 0,292.97 -237.499,530.468 -530.468,530.468" />
          </g>
          <g
             transform="translate(587.0632,819.1087)"
             id="g3358">
            <path
               inkscape:connector-curvature="0"
               id="path3360"
               style="fill:#ffffff;fill-opacity:1;fill-rule:nonzero;stroke:none"
               d="M 0,0 47.788,22.047 51.914,13.103 4.128,-8.944 0,0 Z" />
          </g>
          <g
             transform="translate(666.4711,783.3711)"
             id="g3362">
            <path
               inkscape:connector-curvature="0"
               id="path3364"
               style="fill:#ffffff;fill-opacity:1;fill-rule:nonzero;stroke:none"
               d="m 0,0 5.237,-8.428 -44.754,-27.821 -3.254,5.233 -0.065,-0.038 15.593,42.267 -30.133,-18.735 -5.239,8.428 44.69,27.782 4.247,-6.83 L -27.773,-17.265 0,0 Z" />
          </g>
          <g
             transform="translate(711.1127,727.7155)"
             id="g3366">
            <path
               inkscape:connector-curvature="0"
               id="path3368"
               style="fill:#ffffff;fill-opacity:1;fill-rule:nonzero;stroke:none"
               d="m 0,0 6.672,-7.346 -39.012,-35.427 -4.142,4.565 -0.057,-0.051 7.725,44.384 -26.267,-23.853 -6.672,7.345 38.955,35.375 5.407,-5.955 -6.817,-41.019 L 0,0 Z" />
          </g>
          <g
             transform="translate(728.7549,674.644)"
             id="g3370">
            <path
               inkscape:connector-curvature="0"
               id="path3372"
               style="fill:#ffffff;fill-opacity:1;fill-rule:nonzero;stroke:none"
               d="m 0,0 c -4.986,-7.064 -6.775,-17.265 3.169,-24.677 9.945,-7.415 19.253,-2.727 24.541,4.115 5.422,7.02 7.377,17.942 -2.569,25.357 C 15.197,12.208 5.122,7.247 0,0 m 35.635,-26.284 c -8.254,-10.819 -23.075,-16.74 -37.902,-5.686 -14.828,11.054 -13.745,26.844 -5.477,37.933 8.268,11.09 23.691,16.938 38.278,6.064 14.525,-10.829 13.445,-27.37 5.101,-38.311" />
          </g>
          <g
             transform="translate(802.9274,597.5665)"
             id="g3374">
            <path
               inkscape:connector-curvature="0"
               id="path3376"
               style="fill:#ffffff;fill-opacity:1;fill-rule:nonzero;stroke:none"
               d="M 0,0 -9.258,4.51 -5.793,61.592 4.21,56.723 0.537,12.948 32.797,42.804 42.798,37.934 0,0 Z" />
          </g>
          <g
             transform="translate(889.3117,610.1118)"
             id="g3378">
            <path
               inkscape:connector-curvature="0"
               id="path3380"
               style="fill:#ffffff;fill-opacity:1;fill-rule:nonzero;stroke:none"
               d="M 0,0 -15.209,-19.14 3.683,-24.166 0,0 Z m 5.156,-34.129 -26.595,7.077 -6.911,-8.43 -10.391,2.765 36.35,44.79 10.464,-2.785 9.28,-56.933 -10.465,2.785 -1.732,10.731 z" />
          </g>
          <g
             transform="translate(943.1635,601.5161)"
             id="g3382">
            <path
               inkscape:connector-curvature="0"
               id="path3384"
               style="fill:#ffffff;fill-opacity:1;fill-rule:nonzero;stroke:none"
               d="m 0,0 -16.579,1.863 1.007,8.964 C -0.487,9.133 12.287,7.698 27.448,5.995 L 26.441,-2.97 9.86,-1.107 4.994,-44.428 -4.866,-43.32 0,0 Z" />
          </g>
          <g
             transform="translate(985.4243,554.8421)"
             id="g3386">
            <path
               inkscape:connector-curvature="0"
               id="path3388"
               style="fill:#ffffff;fill-opacity:1;fill-rule:nonzero;stroke:none"
               d="M 0,0 0.85,52.606 10.693,52.446 9.846,-0.159 0,0 Z" />
          </g>
          <g
             transform="translate(1032.757,581.8519)"
             id="g3390">
            <path
               inkscape:connector-curvature="0"
               id="path3392"
               style="fill:#ffffff;fill-opacity:1;fill-rule:nonzero;stroke:none"
               d="m 0,0 c 1.38,-8.537 7.236,-17.076 19.528,-15.417 12.293,1.661 15.664,11.522 14.657,20.109 -1.04,8.812 -7.284,17.98 -19.576,16.321 C 2.318,19.352 -1.41,8.759 0,0 M 43.849,6.15 C 45.52,-7.354 39.073,-21.955 20.747,-24.43 2.421,-26.905 -7.853,-14.867 -9.703,-1.16 -11.555,12.547 -4.627,27.517 13.403,29.951 31.354,32.375 42.156,19.803 43.849,6.15" />
          </g>
          <g
             transform="translate(1131.288,631.8085)"
             id="g3394">
            <path
               inkscape:connector-curvature="0"
               id="path3396"
               style="fill:#ffffff;fill-opacity:1;fill-rule:nonzero;stroke:none"
               d="m 0,0 9.401,3.184 16.908,-49.923 -5.839,-1.98 0.025,-0.069 -37.617,24.807 11.385,-33.615 -9.401,-3.184 -16.885,49.854 7.618,2.58 L 10.494,-30.98 0,0 Z" />
          </g>
          <g
             transform="translate(1200.5166,650.7029)"
             id="g3398">
            <path
               inkscape:connector-curvature="0"
               id="path3400"
               style="fill:#ffffff;fill-opacity:1;fill-rule:nonzero;stroke:none"
               d="m 0,0 c -3.035,1.756 -8.759,1.852 -13.76,-0.914 -6.445,-3.568 -8.044,-7.977 -6.15,-11.396 2.22,-4.013 7.577,-2.511 13.466,-0.109 10.257,4.132 20.588,6.584 26.668,-4.401 5.68,-10.261 -0.956,-19.694 -11.217,-25.374 -9.408,-5.206 -18.244,-6.317 -26.326,0.21 l 5.16,7.755 c 4.843,-3.937 11.408,-3.224 17,-0.13 5.458,3.022 9.533,7.771 6.767,12.769 -2.404,4.342 -7.925,3.606 -14.406,0.877 -10.026,-4.088 -20.092,-6.395 -25.808,3.931 -5.244,9.472 1.947,18.523 10.395,23.286 7.172,3.969 15.732,6.045 23.153,0.871 L 0,0 Z" />
          </g>
          <g
             transform="translate(1258.8696,632.5887)"
             id="g3402">
            <path
               inkscape:connector-curvature="0"
               id="path3404"
               style="fill:#ffffff;fill-opacity:1;fill-rule:nonzero;stroke:none"
               d="M 0,0 -4.216,-3.023 -7.39,3.862 c -1.931,-0.921 -3.88,-0.653 -5.237,1.241 -4.027,5.624 4.826,11.598 8.809,6.035 C -3.291,10.406 -3.36,10.632 0,0" />
          </g>
          <g
             transform="translate(1264.3525,714.671)"
             id="g3406">
            <path
               inkscape:connector-curvature="0"
               id="path3408"
               style="fill:#ffffff;fill-opacity:1;fill-rule:nonzero;stroke:none"
               d="m 0,0 30.519,-30.934 19.268,19.007 6.439,-6.529 L 29.896,-44.434 -7.064,-6.97 0,0 Z" />
          </g>
          <g
             transform="translate(1303.7964,757.9009)"
             id="g3410">
            <path
               inkscape:connector-curvature="0"
               id="path3412"
               style="fill:#ffffff;fill-opacity:1;fill-rule:nonzero;stroke:none"
               d="M 0,0 34.741,-26.085 50.989,-4.447 58.322,-9.953 36.117,-39.526 -5.957,-7.935 0,0 Z" />
          </g>
          <g
             transform="translate(1394.6631,818.1543)"
             id="g3414">
            <path
               inkscape:connector-curvature="0"
               id="path3416"
               style="fill:#ffffff;fill-opacity:1;fill-rule:nonzero;stroke:none"
               d="m 0,0 c 2.198,-7.278 1.131,-14.62 -2.412,-21.336 -9.116,-17.29 -24.877,-18.328 -37.015,-12.012 -12.206,6.351 -20.401,20.788 -11.528,37.61 3.331,6.318 8.881,11.042 16.128,13.338 l 2.567,-8.832 c -4.606,-1.481 -8.176,-4.867 -10.315,-8.923 -5.928,-11.239 -0.11,-20.512 7.706,-24.548 7.748,-4.002 18.143,-3.79 24.212,7.715 2.139,4.057 2.896,9.521 1.449,14.194 L 0,0 Z" />
          </g>
          <g
             transform="translate(1038.0571,772.4139)"
             id="g3418">
            <path
               inkscape:connector-curvature="0"
               id="path3420"
               style="fill:#001f75;fill-opacity:1;fill-rule:nonzero;stroke:none"
               d="m 0,0 c 0,0 -6.88,7.409 -11.114,20.111 -4.234,12.702 -6.88,22.758 -7.409,29.638 -0.53,6.88 -7.41,30.696 -7.41,30.696 0,0 -11.643,-15.877 -12.173,-30.696 C -38.635,34.93 -55.041,4.234 -55.041,4.234 c 0,0 -0.005,-12.584 -1.948,-18.955 l 13.262,0 46.66,0 C -1.733,-11.886 -4.078,-7.196 0,0" />
          </g>
          <g
             transform="translate(960.9163,956.3681)"
             id="g3422">
            <path
               inkscape:connector-curvature="0"
               id="path3424"
               style="fill:#001f75;fill-opacity:1;fill-rule:nonzero;stroke:none"
               d="M 0,0 C 3.185,1.188 2.297,4.806 -0.12,8.932 -1.845,3.876 -3.801,-0.394 -5.83,-2.196 -3.65,-1.37 -1.642,-0.612 0,0" />
          </g>
          <g
             transform="translate(1090.8298,982.6594)"
             id="g3426">
            <path
               inkscape:connector-curvature="0"
               id="path3428"
               style="fill:#001f75;fill-opacity:1;fill-rule:nonzero;stroke:none"
               d="m 0,0 c -3.81,-0.272 -11.053,3.08 -18.007,6.986 2.189,-8.619 6.193,-20.343 11.194,-16.845 7.686,5.376 24.738,17.046 24.738,17.046 0,0 -0.67,3.178 -0.26,6.684 C 14.127,7.134 8.559,0.61 0,0" />
          </g>
          <path
             inkscape:connector-curvature="0"
             id="path3430"
             style="fill:#001f75;fill-opacity:1;fill-rule:nonzero;stroke:none"
             d="m 1022.72,1185.015 -23.658,0 0,23.658 23.658,0 0,-23.658 z m 0,-33.121 -23.658,0 0,23.658 23.658,0 0,-23.658 z m -33.121,33.121 -23.658,0 0,23.658 23.658,0 0,-23.658 z m 0,-33.121 -23.658,0 0,23.658 23.658,0 0,-23.658 z m 5.314,91.229 -0.582,-0.357 -0.583,0.357 -307.344,-211.691 128.721,0 0,-273.739 137.852,0 c -3.82,3.087 -5.401,8.5 -1.716,17.896 0,0 -6.88,1.059 -4.763,13.232 2.117,12.172 22.228,121.197 26.462,129.665 4.234,8.468 -0.529,9.526 -1.588,22.228 -0.049,0.597 -0.095,1.241 -0.138,1.905 -4.935,-3.381 -10.421,-5.527 -13.807,-6.672 -7.311,-2.472 -24.341,-5.426 -24.341,-5.426 -2.032,-1.969 -8.253,-6.557 -18.444,-9.081 -10.191,-2.524 -12.946,-3.896 -16.056,-6.19 -3.111,-2.294 -3.373,2.786 -3.373,2.786 l 2.31,3.476 c -1.881,-0.898 -3.388,-1.917 -3.884,-3.022 -1.736,-3.865 -1.576,-4.862 -0.465,-6.794 1.111,-1.931 0.648,-3.955 -1.564,-4.818 -2.211,-0.863 -10.77,-3.884 -11.115,-3.571 l -0.345,0.312 c 0,0 -14.396,-7.107 -14.897,-8.003 l -4.504,7.498 c 0,0 7.081,2.484 9.187,5.251 l -9.918,-3.505 -4.285,7.353 c 0,0 9.984,0.985 14.848,5.605 0,0 -14.399,-4.264 -15.681,-3.917 l -4.738,9.174 c 0,0 -1.042,1.765 0.534,1.973 0,0 9.337,1.133 15.413,2.928 6.077,1.795 12.829,4.179 13.097,4.537 0.269,0.357 0.459,1.337 0.987,0.764 0.527,-0.573 2.202,-4.279 4.621,-5.38 2.419,-1.101 4.054,-2.56 8.91,-1.468 0.596,0.134 1.165,0.266 1.719,0.4 -1.698,0.708 -3.434,1.689 -4.392,2.988 -2.294,3.111 6.912,4.671 6.912,4.671 -5.782,4.776 3.889,6.557 3.889,6.557 -3.017,3.408 3.598,4.355 3.598,4.355 -4.868,3.716 -0.469,4.662 2.391,4.742 2.668,0.075 11.116,0.562 11.116,0.562 6.629,2.629 13.887,-5.035 13.887,-5.035 0,0 4.798,1.846 10.698,4.104 -8.843,-0.353 -18.083,4.263 -22.669,6.878 -6.703,3.823 -20.223,14.592 -20.223,14.592 -2.822,0.211 -10.384,1.814 -19.04,7.756 -8.656,5.941 -11.511,7.089 -15.292,7.891 -3.781,0.801 -0.158,4.371 -0.158,4.371 l 5.515,0.777 -0.362,0.091 c 0,0 -1.224,0.219 -1.272,1.365 l -4.021,0.846 c 0,0 -1.03,0.741 -0.393,1.334 l -1.073,0.191 -1.979,-1.844 c 0,0 -1.456,-1.358 -2.396,-0.532 0,0 -1.56,-1.795 -5.692,-4.115 -4.131,-2.32 -9.258,-5.397 -13.763,-3.302 -4.505,2.096 -8.075,5.743 -10.875,8.747 -2.8,3.004 -13.235,16.754 -13.235,16.754 7.068,2.02 14.847,4.227 22.252,3.972 5.754,-0.198 9.819,-5.289 12.815,-9.563 4.905,-6.996 7.341,-10.339 7.341,-10.339 l 2.007,-0.511 3.108,3.236 c 0,0 0.624,0.242 1.498,0.036 0,0 0.972,2.607 2.1,2.127 1.127,-0.48 3.995,-1.549 3.995,-1.549 0,0 -0.07,0.801 0.416,1.027 -0.088,0.767 -0.086,1.513 0.057,2.189 0.802,3.781 8.082,-2.064 8.082,-2.064 -0.27,7.494 7.485,1.447 7.485,1.447 0.544,4.52 5.646,0.204 5.646,0.204 -0.456,6.107 3.173,3.447 5.132,1.363 1.829,-1.946 7.804,-7.937 7.804,-7.937 6.369,-3.21 5.46,-13.725 5.46,-13.725 0,0 18.357,-9.487 26.645,-13.879 3.835,-2.032 6.223,3.519 7.685,10.067 -3.783,-0.103 -6.956,0.18 -8.888,1.066 -14.651,6.724 -14.037,27.544 -13.22,36.182 0.817,8.637 5.6,27.471 5.6,27.471 -0.993,2.724 -2.586,10.049 -1.288,20.115 -1.78,1.68 -4.673,5.082 -4.274,9.038 l -6.759,11.421 22.546,13.342 6.581,-11.121 c 0.582,0.304 1.171,0.542 1.758,0.67 2.995,0.654 2.571,-4.203 2.062,-7.126 l 0.923,-1.559 c 4.578,1.417 4.188,-3.989 3.798,-6.419 l 0.566,-0.956 c 2.491,0.342 2.616,-2.19 2.39,-4.039 l 0.759,-1.283 c 4.563,1.99 3.887,-1.984 2.82,-4.765 l 8.067,-13.633 -22.545,-13.342 -1.747,2.951 c -0.002,-0.043 -1.232,-23.203 -1.899,-33.717 -0.415,-6.559 12.048,-4.071 21.497,-1.267 l 20.773,7.225 1.787,-0.218 c -2.791,4.05 -4.433,8.952 -4.433,14.243 l 0,14.29 c 0,13.884 11.255,25.139 25.139,25.139 13.884,0 25.139,-11.255 25.139,-25.139 l 0,-14.29 c 0,-3.134 -0.599,-6.121 -1.647,-8.888 8.684,2.514 17.58,4.714 22.721,4.93 6.886,3.863 27.327,16.09 20.301,21.419 -8.4,6.373 -26.763,20.602 -26.763,20.602 0,0 -1.374,-0.783 -3.414,-1.538 l 3.919,-5.746 c 0,0 2.251,-11.513 -8.256,-4.967 l -6.98,10.233 c -0.641,0.288 -1.266,0.629 -1.85,1.091 0,0 -8.938,3.257 -11.787,4.201 -3.053,1.011 -7.483,3.452 -1.039,5.878 0,0 -6.816,3.16 -2.465,5.854 0,0 -9.837,5.046 -2.067,8.317 0,0 -9.406,4.659 -5.93,7.266 0.611,0.458 1.356,0.807 2.163,1.079 l -8.345,12.236 c 0,0 -8.05,-1.951 -9.548,-6.069 l -5.765,8.453 c 0,0 6.56,2.908 8.132,5.875 -0.003,0 -0.007,0.01 -0.01,0.014 l -0.176,0.257 c -1.951,2.862 -1.214,6.763 1.647,8.715 2.242,1.529 5.119,1.401 7.2,-0.1 4.514,4.462 14.896,12.72 26.926,8.865 0,0 -20.955,-12.081 -20.666,-20.288 l 7.924,-11.617 -1.189,3.918 c 0,0 1.926,5.385 4.532,1.908 2.608,-3.476 5.13,-5.844 15.285,-11.859 10.156,-6.015 15.37,-12.967 16.921,-15.745 0,0 17.38,-8.69 24.451,-13.716 7.072,-5.027 23.231,-18.17 18.744,-33.654 -1.507,-5.198 -11.204,-13.914 -19.715,-20.668 6.728,-4.856 14.875,-9.395 16.432,-4.286 2.734,8.972 8.959,28.675 8.959,28.675 0,0 -8.094,6.774 -5.876,13.553 0,0 -0.032,8.461 -0.121,11.129 -0.095,2.86 0.579,7.308 4.587,2.677 0,0 0.54,6.66 4.127,3.858 0,0 1.184,9.762 6.305,4.284 0,0 0.994,9.284 4.239,7.185 0.832,-0.539 1.563,-1.379 2.192,-2.328 l 0.999,2.239 c 0,0 1.57,0.639 2.197,-0.268 0,0 0.803,3.685 1.71,4.312 l 1.791,-0.327 2.117,4.37 -0.638,1.57 14.37,30.274 3.707,-2.129 -14.021,-29.81 -1.663,-1.15 -1.711,-4.311 c 0,0 1.697,-0.838 1.359,-1.965 -0.338,-1.128 -1.884,-3.091 -1.884,-3.091 0,0 1.806,0.171 1.937,-0.835 1.192,-0.079 4.25,-0.536 2.54,-3.179 -2.099,-3.246 -3.3,-6.079 -5.195,-16.406 -1.895,-10.326 -6.093,-16.817 -7.934,-18.965 0,0 -1.905,-17.18 -3.924,-24.628 -0.395,-1.457 -0.949,-3.305 -1.68,-5.334 0.31,0.294 0.649,0.568 1.019,0.816 0,0 5.194,6.679 6.77,8.835 1.688,2.309 4.963,5.395 5.261,-0.722 0,0 4.533,4.909 5.628,0.491 0,0 6.953,6.954 7.606,-0.517 0,0 6.507,6.695 7.767,3.041 0.394,-1.142 0.396,-2.545 0.212,-3.933 l 11.074,4.337 c 0.453,0.177 0.911,0.272 1.363,0.326 0.39,2.381 1.962,4.508 4.373,5.452 2.347,0.919 4.878,0.482 6.768,-0.911 l -4.24,0.642 -3.68,-4.607 1.026,-2.619 c 0.018,-0.042 0.048,-0.077 0.065,-0.121 0.017,-0.043 0.019,-0.089 0.034,-0.133 l 1.025,-2.618 5.831,-0.884 2.676,3.351 c -0.442,-2.306 -2.003,-4.345 -4.35,-5.264 -2.411,-0.944 -5.009,-0.451 -6.913,1.032 -0.368,-0.267 -0.768,-0.508 -1.222,-0.686 l -8.786,-3.441 2.085,-0.035 c 0,0 4.034,-3.097 0.38,-4.357 -3.654,-1.261 -6.346,-2.75 -14.207,-9.71 -7.861,-6.959 -15.168,-9.479 -17.943,-10.035 0,0 -12.095,-12.348 -18.278,-16.966 -6.183,-4.617 -21.716,-14.717 -33.603,-6.698 -2.671,1.802 -5.677,7.143 -8.392,13.19 0.014,-0.253 0.026,-0.511 0.043,-0.756 1.012,-14.819 1.012,-37.577 -2.692,-41.811 l -3.705,-4.234 c 0,0 -3.705,-35.989 3.175,-55.571 6.881,-19.582 11.644,-51.337 12.173,-69.331 0.529,-17.994 -4.234,-26.991 -4.234,-26.991 0,0 2.768,-9.08 -0.025,-14.192 l 107.983,0 0,273.739 128.721,0 -307.344,211.691 z" />
          <g
             transform="translate(1061.2865,996.4053)"
             id="g3432">
            <path
               inkscape:connector-curvature="0"
               id="path3434"
               style="fill:#001f75;fill-opacity:1;fill-rule:nonzero;stroke:none"
               d="M 0,0 C 0.116,0.022 0.231,0.046 0.347,0.068 0.234,0.142 0.117,0.218 0.007,0.291 0.004,0.194 0.002,0.098 0,0" />
          </g>
          <g
             transform="translate(819.8964,1298.0408)"
             id="g3436">
            <path
               inkscape:connector-curvature="0"
               id="path3438"
               style="fill:#ffffff;fill-opacity:1;fill-rule:nonzero;stroke:none"
               d="M 0,0 -59.06,141.92 43.066,184.419 53.797,158.633 -21.529,127.287 -5.391,88.508 65.875,118.164 76.182,93.394 4.917,63.738 26.8,11.152 0,0 Z" />
          </g>
          <g
             transform="translate(980.2539,1472.5891)"
             id="g3440">
            <path
               inkscape:connector-curvature="0"
               id="path3442"
               style="fill:#ffffff;fill-opacity:1;fill-rule:nonzero;stroke:none"
               d="m 0,0 -48.814,-0.793 -0.43,26.386 c 44.418,0.721 82.016,1.332 126.651,2.058 L 77.837,1.265 29.023,0.472 31.096,-127.058 2.07,-127.53 0,0 Z" />
          </g>
          <g
             transform="translate(1243.434,1440.8893)"
             id="g3444">
            <path
               inkscape:connector-curvature="0"
               id="path3446"
               style="fill:#ffffff;fill-opacity:1;fill-rule:nonzero;stroke:none"
               d="m 0,0 -90.665,-43.428 40.446,-99.418 -0.646,-1.637 -33.344,13.158 -34.918,87.069 -25.023,-63.417 -27.003,10.655 56.505,143.201 27.003,-10.655 -23.893,-60.554 78.311,39.083 L 0.323,0.818 0,0 Z" />
          </g>
        </g>
      </g>
    </g>
  </g>
</svg>
